<svg width="17" height="15" viewBox="0 0 17 15" fill="none" xmlns="http://www.w3.org/2000/svg">
<path d="M4.63367 0.58197C3.87195 0.58197 3.16882 0.7724 2.52429 1.15326C1.87976 1.53412 1.36707 2.04681 0.986206 2.69135C0.605347 3.33588 0.414917 4.039 0.414917 4.80072C0.414917 5.44525 0.649292 6.11322 1.11804 6.80463C1.3407 7.14447 1.56921 7.41986 1.80359 7.6308L8.28992 14.1347L14.9872 7.41986C15.163 7.23236 15.327 7.03314 15.4794 6.8222C15.6786 6.52924 15.8368 6.23041 15.954 5.92572C16.0946 5.539 16.1649 5.164 16.1649 4.80072C16.1649 4.039 15.9745 3.33588 15.5936 2.69135C15.2128 2.04681 14.7001 1.53412 14.0555 1.15326C13.411 0.7724 12.7079 0.58197 11.9462 0.58197C10.5868 0.58197 9.36804 1.13275 8.28992 2.23431C7.21179 1.13275 5.99304 0.58197 4.63367 0.58197ZM4.63367 1.70697C5.02039 1.70697 5.42468 1.79486 5.84656 1.97064C6.1864 2.09955 6.5321 2.28119 6.88367 2.51556C7.12976 2.69135 7.37 2.87885 7.60437 3.07806L7.86804 3.34174L8.28992 3.81635L8.71179 3.34174L8.97546 3.07806C9.20984 2.87885 9.45007 2.69135 9.69617 2.51556C10.0477 2.28119 10.3934 2.09955 10.7333 1.97064C11.1552 1.79486 11.5594 1.70697 11.9462 1.70697C12.5087 1.70697 13.0272 1.8476 13.5018 2.12885C13.9764 2.4101 14.3514 2.78802 14.6268 3.26263C14.9022 3.73724 15.0399 4.24994 15.0399 4.80072C15.0399 5.05853 14.9462 5.36322 14.7587 5.71478C14.6298 5.9726 14.4657 6.23627 14.2665 6.5058L13.9852 6.83978L8.28992 12.5351L2.5946 6.83978L2.41882 6.664C2.28992 6.49994 2.16687 6.33588 2.04968 6.17181C1.89734 5.94916 1.78015 5.7265 1.69812 5.50385C1.59265 5.24603 1.53992 5.01166 1.53992 4.80072C1.53992 4.24994 1.67761 3.73724 1.953 3.26263C2.22839 2.78802 2.60339 2.4101 3.078 2.12885C3.55261 1.8476 4.07117 1.70697 4.63367 1.70697Z" fill="black"/>
</svg>
