<svg width="46" height="46" viewBox="0 0 46 46" fill="none" xmlns="http://www.w3.org/2000/svg">
<rect x="0.0648804" y="0.76947" width="40" height="40" rx="20" fill="#EBEEF6"/>
<rect x="25.0649" y="25.7695" width="20" height="20" rx="10" fill="#1ABA1A"/>
<path d="M35.2159 39.8788C34.7576 39.8788 34.3448 39.7877 33.9777 39.6054C33.6105 39.4231 33.3162 39.1731 33.0948 38.8554C32.8735 38.5377 32.7524 38.1757 32.7316 37.7695H33.6691C33.7055 38.1314 33.8696 38.4309 34.1613 38.6679C34.4555 38.9023 34.8071 39.0195 35.2159 39.0195C35.5441 39.0195 35.8357 38.9426 36.0909 38.789C36.3488 38.6354 36.5506 38.4244 36.6964 38.1562C36.8448 37.8854 36.9191 37.5794 36.9191 37.2382C36.9191 36.8893 36.8422 36.5781 36.6886 36.3046C36.5376 36.0286 36.3292 35.8111 36.0636 35.6523C35.798 35.4934 35.4946 35.4127 35.1534 35.4101C34.9086 35.4075 34.6573 35.4453 34.3995 35.5234C34.1417 35.5989 33.9295 35.6966 33.7628 35.8163L32.8566 35.707L33.3409 31.7695H37.4972V32.6288H34.1534L33.8722 34.9882H33.9191C34.0831 34.858 34.2889 34.7499 34.5363 34.664C34.7836 34.5781 35.0415 34.5351 35.3097 34.5351C35.7993 34.5351 36.2355 34.6523 36.6183 34.8867C37.0037 35.1184 37.3058 35.4361 37.5245 35.8398C37.7459 36.2434 37.8566 36.7044 37.8566 37.2226C37.8566 37.733 37.742 38.1887 37.5128 38.5898C37.2863 38.9882 36.9738 39.3033 36.5753 39.5351C36.1769 39.7643 35.7238 39.8788 35.2159 39.8788Z" fill="white"/>
</svg>
